<svg xmlns="http://www.w3.org/2000/svg" width="128" height="128" viewBox="0 0 128 128">
  <!-- Main circular background -->
  <circle cx="64" cy="64" r="60" fill="#4a90e2" />
  
  <!-- World grid pattern -->
  <g stroke="#ffffff" stroke-width="1" stroke-opacity="0.3">
    <!-- Horizontal grid lines -->
    <line x1="14" y1="34" x2="114" y2="34" />
    <line x1="14" y1="64" x2="114" y2="64" />
    <line x1="14" y1="94" x2="114" y2="94" />
    
    <!-- Vertical grid lines -->
    <line x1="34" y1="14" x2="34" y2="114" />
    <line x1="64" y1="14" x2="64" y2="114" />
    <line x1="94" y1="14" x2="94" y2="114" />
  </g>
  
  <!-- 3D shapes representing a virtual world -->
  <g>
    <!-- Cube -->
    <path d="M30,84 L50,74 L50,54 L30,64 Z" fill="#3773b9" stroke="#ffffff" stroke-width="1.5" />
    <path d="M50,74 L70,84 L70,64 L50,54 Z" fill="#2a5b9e" stroke="#ffffff" stroke-width="1.5" />
    <path d="M30,64 L50,54 L70,64 L50,74 Z" fill="#5da2e3" stroke="#ffffff" stroke-width="1.5" />
    
    <!-- Cylinder -->
    <ellipse cx="85" cy="64" rx="15" ry="6" fill="#5da2e3" stroke="#ffffff" stroke-width="1.5" />
    <path d="M70,64 L70,84 C70,87.3 77,90 85,90 C93,90 100,87.3 100,84 L100,64" fill="#3773b9" stroke="#ffffff" stroke-width="1.5" />
    
    <!-- Avatar silhouette -->
    <circle cx="64" cy="36" r="15" fill="#ffffff" />
    <path d="M54,50 C54,50 44,82 44,84 C44,86 84,86 84,84 C84,82 74,50 74,50 C74,50 64,58 54,50 Z" fill="#ffffff" />
  </g>
  
  <!-- Text label (optional) -->
  <text x="64" y="114" font-family="Arial, sans-serif" font-size="12" font-weight="bold" text-anchor="middle" fill="#ffffff">KitelyView</text>
</svg>
