<?xml version="1.0" encoding="UTF-8" standalone="no"?>
<svg width="512" height="512" viewBox="0 0 512 512" version="1.1" xmlns="http://www.w3.org/2000/svg">
  <g id="KitelyView-Icon">
    <rect x="0" y="0" width="512" height="512" rx="60" ry="60" fill="#2D4263" />
    <circle cx="256" cy="256" r="180" fill="#5B85AA" />
    
    <!-- Virtual world landscape -->
    <path d="M 76,350 L 180,280 L 256,320 L 350,256 L 440,350 L 76,350 Z" fill="#8FB8DE" />
    <path d="M 120,350 L 200,300 L 300,340 L 400,300 L 436,350 L 120,350 Z" fill="#68A691" />
    
    <!-- Mountains in background -->
    <path d="M 100,320 L 150,250 L 180,280 L 100,320 Z" fill="#C0E0DE" />
    <path d="M 300,300 L 350,220 L 400,300 L 300,300 Z" fill="#C0E0DE" />
    
    <!-- Stylized "K" -->
    <path d="M 180,150 L 180,350 L 210,350 L 210,270 L 280,350 L 320,350 L 230,255 L 310,170 L 270,170 L 210,235 L 210,150 L 180,150 Z" fill="#FFFFFF" />
    
    <!-- Virtual window -->
    <rect x="300" y="150" width="80" height="80" rx="10" ry="10" fill="none" stroke="#FFFFFF" stroke-width="12" />
    <line x1="300" y1="190" x2="380" y2="190" stroke="#FFFFFF" stroke-width="6" />
    <line x1="340" y1="150" x2="340" y2="230" stroke="#FFFFFF" stroke-width="6" />
  </g>
</svg>
